<svg xmlns="http://www.w3.org/2000/svg" viewBox="0 0 512 512" fill="red"><path d="M96.301 173.072l.268.004c.292.005.583.009.876.009a75.6 75.6 0 0023.002-3.567 75.366 75.366 0 0018.18-8.621c8.829-5.741 16.531-13.442 22.271-22.271a75.348 75.348 0 008.621-18.18 75.6 75.6 0 003.567-23.002c0-.293-.004-.584-.009-.876l-.004-.275a75.626 75.626 0 00-26.849-56.656 75.69 75.69 0 00-48.779-17.834c-41.708 0-75.641 33.933-75.641 75.641a75.689 75.689 0 0017.833 48.779 75.63 75.63 0 0056.664 26.849zM37.284 89.945c1.378-11.113 5.769-21.299 12.336-29.718l6.924 6.924L67.15 56.543l-6.924-6.924c8.419-6.567 18.605-10.958 29.718-12.336v9.818h15v-9.823a60.677 60.677 0 0129.742 12.317l-6.947 6.947 10.606 10.606 6.942-6.942a60.598 60.598 0 0112.329 29.738h-9.829v15h9.831a60.303 60.303 0 01-2.391 10.944 60.393 60.393 0 01-6.905 14.561 61.427 61.427 0 01-17.873 17.873 60.357 60.357 0 01-14.561 6.905c-6.146 1.96-12.597 2.961-19.074 2.851l-.296-.004a60.634 60.634 0 01-45.422-21.529c-7.594-8.991-12.368-20.003-13.817-31.6h9.823v-15h-9.818z"/><path d="M97.444 119.518c8.154 0 14.787-6.633 14.787-14.787 0-5.414-2.934-10.145-7.287-12.721V57.917h-15V92.01c-4.353 2.576-7.287 7.307-7.287 12.721 0 8.153 6.633 14.787 14.787 14.787zm0-15c.118 0 .213.096.213.213.001.234-.426.235-.426 0 0-.118.096-.213.213-.213zM256 305.846c27.485 0 49.846-22.361 49.846-49.846 0-27.485-22.361-49.846-49.846-49.846S206.154 228.515 206.154 256s22.361 49.846 49.846 49.846zm0-84.692c19.214 0 34.846 15.632 34.846 34.846S275.214 290.846 256 290.846 221.154 275.214 221.154 256s15.632-34.846 34.846-34.846z"/><path d="M437.02 74.98C388.667 26.629 324.38 0 256 0c-34.481 0-67.886 6.752-99.376 20.042A97.526 97.526 0 0097.444 0C43.713 0 0 43.713 0 97.444a97.524 97.524 0 0020.042 59.18C6.752 188.115 0 221.519 0 256c0 68.38 26.629 132.667 74.98 181.02C123.333 485.371 187.62 512 256 512s132.667-26.629 181.02-74.98C485.371 388.667 512 324.38 512 256s-26.629-132.667-74.98-181.02zM15 97.444C15 51.984 51.984 15 97.444 15c19.443 0 38.323 6.901 53.16 19.434 18.244 15.408 28.912 37.916 29.269 61.752l.006.381c.005.292.01.584.01.877a82.32 82.32 0 01-3.886 25.075 82.086 82.086 0 01-14.473 26.777 83.686 83.686 0 01-5.801 6.432 82.974 82.974 0 01-13.411 10.884 82.125 82.125 0 01-22.873 10.304c-.978.27-1.96.52-2.947.754l-.108.028a82.439 82.439 0 01-15.529 2.116l-.299.014c-.695.026-1.392.031-2.089.04-.634.005-1.268.019-1.903.009h-.002l-.381-.006c-23.836-.357-46.344-11.025-61.752-29.269C21.901 135.766 15 116.887 15 97.444zm125.103 265.167a117.38 117.38 0 009.285 9.285c28.077 25.848 65.53 41.658 106.611 41.658 86.876 0 157.555-70.679 157.555-157.555S342.876 98.445 256 98.445a157.95 157.95 0 00-62.074 12.723c.108-.767.206-1.537.296-2.307.006-.051.014-.101.019-.151a97.165 97.165 0 00.383-4.152c.077-1.058.141-2.117.183-3.179l.01-.191.003-.069a169.97 169.97 0 012.244-.865c.421-.159.84-.326 1.262-.482a161.27 161.27 0 013.773-1.345l.061-.022c1.286-.44 2.576-.862 3.87-1.27.406-.128.814-.245 1.221-.37.888-.272 1.775-.543 2.667-.8.503-.145 1.009-.28 1.513-.42.799-.222 1.599-.444 2.401-.654.544-.142 1.09-.276 1.636-.412.767-.192 1.534-.384 2.303-.565.566-.133 1.135-.259 1.702-.386.753-.169 1.506-.336 2.262-.494.581-.122 1.162-.237 1.744-.352a153.208 153.208 0 016.26-1.115 154.014 154.014 0 014.045-.588c.591-.079 1.183-.157 1.776-.229.766-.094 1.533-.178 2.301-.261.585-.063 1.169-.128 1.755-.185.786-.076 1.573-.142 2.361-.208.571-.047 1.141-.098 1.713-.14.824-.06 1.649-.107 2.475-.155.538-.031 1.075-.068 1.613-.094.913-.044 1.829-.073 2.745-.103.453-.015.905-.036 1.359-.047 1.37-.033 2.743-.051 4.118-.051 91.805 0 166.494 74.689 166.494 166.494S347.805 422.494 256 422.494 89.506 347.805 89.506 256c0-1.375.018-2.748.051-4.118.011-.454.033-.906.047-1.359.029-.916.059-1.832.103-2.745.026-.539.063-1.076.094-1.613.048-.826.095-1.652.155-2.475.042-.572.092-1.142.14-1.713.065-.788.131-1.575.208-2.361.057-.586.122-1.171.185-1.755.083-.768.168-1.535.261-2.301.072-.593.151-1.184.229-1.776a149.84 149.84 0 01.588-4.045 169.482 169.482 0 01.685-4.015c.138-.75.282-1.498.43-2.245.115-.582.231-1.164.352-1.744.158-.755.325-1.509.494-2.262.127-.568.253-1.136.386-1.702.181-.77.373-1.536.565-2.303.137-.546.27-1.092.412-1.636.21-.802.432-1.602.654-2.401.14-.504.275-1.01.42-1.513.257-.891.528-1.779.8-2.667.125-.407.242-.815.37-1.221.408-1.294.83-2.585 1.27-3.87l.022-.061c.432-1.262.882-2.519 1.345-3.773.156-.422.323-.841.482-1.262.284-.749.57-1.498.865-2.244l.069-.003c.064-.002.127-.007.191-.01a96.101 96.101 0 004.005-.246c1.111-.09 2.22-.192 3.326-.32.051-.006.101-.014.151-.019.77-.09 1.54-.187 2.307-.296A157.95 157.95 0 0098.445 256c0 41.081 15.811 78.534 41.658 106.611zm-24.229-80.376h60.757c4.117 0 5.737 3.138 6.135 4.099.398.962 1.472 4.326-1.439 7.238l-42.919 42.918c-11.012-16.039-18.83-34.43-22.534-54.255zm59.636 91.357l42.918-42.919c1.31-1.31 2.855-1.973 4.594-1.973 2.8 0 6.743 2.069 6.743 6.669v60.757c-19.825-3.704-38.216-11.522-54.255-22.534zm106.725 22.534v-60.757c0-4.6 3.943-6.669 6.743-6.669 1.739 0 3.285.664 4.594 1.973l42.918 42.919c-16.039 11.013-34.43 18.831-54.255 22.534zm48.438-102.554c-2.911-2.912-1.838-6.276-1.439-7.238.398-.961 2.018-4.099 6.135-4.099h60.757c-3.704 19.825-11.522 38.216-22.534 54.255l-42.919-42.918zm65.453-63.807h-60.757c-4.117 0-5.737-3.138-6.135-4.099-.398-.962-1.472-4.326 1.439-7.238l42.919-42.918c11.012 16.039 18.83 34.43 22.534 54.255zm-59.636-91.357l-42.918 42.919c-1.31 1.309-2.855 1.973-4.594 1.973a6.998 6.998 0 01-4.728-1.869c-.919-.858-2.015-2.388-2.015-4.8v-60.757c19.825 3.703 38.216 11.521 54.255 22.534zm-106.725-22.519v60.742c0 4.6-3.943 6.669-6.743 6.669-1.739 0-3.285-.664-4.594-1.973l-36.07-36.07a97.07 97.07 0 006.946-15.249 142.24 142.24 0 0140.461-14.119zm-21.944 76.044c4.106 4.106 9.504 6.367 15.201 6.367 11.989 0 21.743-9.721 21.743-21.669V114.06c2.737-.299 5.485-.487 8.235-.566.723-.015 1.445-.03 2.169-.035 4.028-.032 8.058.163 12.066.601v62.572c0 6.083 2.407 11.682 6.776 15.763 4.019 3.754 9.475 5.907 14.967 5.906 5.696 0 11.094-2.261 15.2-6.367l44.104-44.104a102.552 102.552 0 0115.889 15.889l-44.104 44.104c-6.307 6.307-8.104 15.344-4.691 23.584 3.413 8.24 11.074 13.359 19.993 13.359h62.572c.408 3.732.614 7.492.614 11.235s-.206 7.502-.614 11.235h-62.572c-8.919 0-16.58 5.119-19.993 13.359-3.414 8.24-1.616 17.277 4.691 23.584l44.165 44.164a102.552 102.552 0 01-15.889 15.889l-44.164-44.165c-4.106-4.106-9.504-6.367-15.201-6.367-11.989 0-21.743 9.721-21.743 21.669v62.572c-7.465.816-15.005.816-22.47 0v-62.572c0-11.948-9.754-21.669-21.743-21.669-5.696 0-11.095 2.261-15.201 6.367l-44.234 44.234a103.907 103.907 0 01-3.846-3.249 143.877 143.877 0 01-8.794-8.794 102.138 102.138 0 01-3.249-3.846l44.234-44.234c6.307-6.307 8.104-15.344 4.691-23.584s-11.074-13.359-19.993-13.359h-62.57a103.512 103.512 0 01-.614-11.235c0-1.02.027-2.039.049-3.058.081-2.729.268-5.46.565-8.177h62.572c8.919 0 16.58-5.119 19.993-13.359 3.414-8.24 1.616-17.277-4.691-23.584l-33.995-33.995c.125-.1.247-.204.372-.304.402-.324.801-.652 1.198-.982.295-.245.591-.489.884-.737.406-.345.808-.696 1.209-1.048.275-.241.551-.479.823-.723.432-.387.856-.782 1.281-1.177.234-.217.471-.431.703-.651.601-.569 1.194-1.147 1.781-1.731l.283-.283a96.958 96.958 0 001.732-1.782c.22-.232.434-.47.652-.705.394-.424.788-.848 1.174-1.278.244-.272.483-.55.725-.825a92.56 92.56 0 001.048-1.209c.247-.291.49-.586.734-.881.331-.399.66-.799.985-1.203.1-.124.204-.245.303-.37l33.995 33.995zm-91.932 37.832a142.24 142.24 0 0114.119-40.461 96.98 96.98 0 0015.249-6.946l36.07 36.07c2.911 2.912 1.838 6.276 1.439 7.238-.398.961-2.018 4.099-6.135 4.099h-60.742zM475.12 356.283c-10.872 23.661-25.468 45.266-43.031 64.07l-22.565-22.416-10.571 10.642L421.522 431c-19.695 18.638-42.523 33.993-67.602 45.19l-12.055-29.552-13.889 5.666 12.062 29.569c-23.717 8.853-49.19 14.066-75.74 14.969l-.106-31.919-15 .05.106 31.93c-28.035-.769-54.885-6.359-79.761-15.953l12.377-29.432-13.827-5.814-12.37 29.416c-23.661-10.872-45.266-25.468-64.07-43.031l22.416-22.565-10.642-10.571L81 421.522c-18.638-19.695-33.993-42.523-45.19-67.602l29.552-12.055-5.666-13.889-29.569 12.062c-8.853-23.717-14.066-49.19-14.969-75.74l31.919-.106-.05-15-31.927.106c.75-27.749 6.153-54.711 16.123-80.378.1.093.204.179.305.271a99.009 99.009 0 002.545 2.267l.002.001a97.677 97.677 0 002.621 2.157c.222.177.446.353.67.529a96.58 96.58 0 002.492 1.892l.227.17a97.737 97.737 0 002.773 1.941c.225.152.451.301.676.451.82.545 1.647 1.078 2.482 1.597.14.087.278.177.419.264a97.32 97.32 0 002.904 1.713c.218.124.438.244.656.366.837.467 1.679.921 2.529 1.363.187.097.372.197.559.293a97.137 97.137 0 003.024 1.481c.2.094.402.184.603.276.868.4 1.742.786 2.622 1.16.221.094.441.19.663.283 1.038.432 2.082.848 3.134 1.244.168.063.337.122.505.184.914.338 1.834.662 2.759.973.249.084.498.169.748.251 1.07.35 2.146.686 3.229 1 .117.034.234.064.351.097a98.683 98.683 0 003.766.992c1.101.267 2.205.521 3.316.75l.057.011a97.511 97.511 0 004.136.749c1.034.166 2.07.319 3.111.451.075.01.149.023.224.033-.263.724-.511 1.453-.765 2.18-.145.414-.295.828-.436 1.243a180.276 180.276 0 00-1.34 4.084c-.037.117-.07.234-.106.351a183.434 183.434 0 00-1.126 3.751c-.134.465-.26.932-.39 1.398-.255.914-.507 1.828-.748 2.745-.14.534-.275 1.069-.41 1.605a190.772 190.772 0 00-1.02 4.248c-.196.865-.384 1.731-.568 2.599-.114.54-.23 1.079-.339 1.62-.19.943-.369 1.889-.544 2.836-.085.461-.176.92-.258 1.382a180.541 180.541 0 00-.697 4.215l-.042.3a179.695 179.695 0 00-.551 3.953c-.061.478-.114.957-.171 1.435-.114.95-.225 1.9-.324 2.853-.057.549-.108 1.1-.16 1.65a183.55 183.55 0 00-.364 4.382c-.063.899-.119 1.799-.169 2.7-.031.549-.063 1.098-.089 1.648-.046.979-.08 1.961-.11 2.942-.014.467-.034.933-.045 1.401a185.226 185.226 0 00-.054 4.35c0 100.076 81.418 181.494 181.494 181.494S437.494 356.076 437.494 256 356.076 74.506 256 74.506c-1.453 0-2.903.02-4.35.054-.468.011-.934.031-1.401.045-.982.03-1.963.064-2.942.11-.55.026-1.099.058-1.648.089a186.232 186.232 0 00-4.405.298c-.892.071-1.782.151-2.672.235-.553.052-1.106.104-1.658.161-.951.099-1.899.209-2.847.323-.479.058-.959.11-1.438.171-1.32.169-2.638.353-3.953.551l-.3.042c-1.409.215-2.813.449-4.215.697-.462.082-.921.172-1.382.258-.947.175-1.893.354-2.836.544-.541.109-1.08.225-1.62.339a164.774 164.774 0 00-4.264.954c-.861.204-1.721.416-2.579.633-.538.136-1.076.271-1.612.412-.915.24-1.828.492-2.74.747-.467.131-.935.256-1.401.391-1.246.359-2.488.732-3.727 1.119-.125.039-.252.075-.377.114a180.01 180.01 0 00-4.081 1.339c-.415.142-.828.292-1.243.436-.727.254-1.455.502-2.18.765-.009-.075-.023-.149-.033-.224a97.856 97.856 0 00-.592-3.968 97.046 97.046 0 00-.608-3.279l-.011-.057a97.57 97.57 0 00-.75-3.316c-.066-.272-.134-.542-.202-.813a96.52 96.52 0 00-.79-2.953c-.033-.117-.063-.235-.097-.351a94.83 94.83 0 00-1-3.228c-.082-.25-.167-.499-.251-.749a98.954 98.954 0 00-.972-2.757c-.063-.169-.122-.339-.185-.507a97.143 97.143 0 00-1.244-3.133c-.093-.222-.189-.443-.283-.665a96.956 96.956 0 00-1.16-2.62c-.093-.201-.183-.404-.277-.605a97.008 97.008 0 00-1.48-3.022c-.097-.189-.197-.375-.295-.563A98.828 98.828 0 00182.54 50c-.123-.221-.245-.442-.369-.662a97.064 97.064 0 00-1.711-2.9c-.088-.143-.18-.284-.268-.426a96.18 96.18 0 00-1.592-2.473c-.151-.228-.302-.456-.455-.682a97.32 97.32 0 00-1.937-2.767c-.059-.081-.121-.161-.181-.242a99.335 99.335 0 00-2.417-3.156 95.887 95.887 0 00-2.137-2.597l-.02-.024a98.024 98.024 0 00-2.258-2.535c-.094-.103-.183-.209-.277-.312 25.174-9.779 51.596-15.157 78.782-16.068l.106 31.923 15-.05-.106-31.93c28.035.769 54.885 6.359 79.761 15.953l-12.377 29.432 13.827 5.814 12.37-29.416c23.661 10.872 45.266 25.468 64.07 43.031l-22.416 22.565 10.642 10.571L431 90.478c18.638 19.695 33.993 42.523 45.19 67.602l-29.552 12.055 5.666 13.889 29.569-12.062c8.853 23.717 14.066 49.19 14.969 75.74l-31.919.106.05 15 31.93-.106c-.769 28.035-6.359 54.885-15.953 79.761l-29.432-12.377-5.814 13.827 29.416 12.37z"/></svg>