<svg xmlns="http://www.w3.org/2000/svg" viewBox="0 0 480 480" fill="red"><path d="M361.74 428.188l-11.084-16.626-13.313 8.875 10.648 15.972c-30.127 16.536-64.188 26.063-99.992 27.312V448h-16v15.797c-36.101-1.276-70.054-11.098-99.877-27.559l10.534-15.801-13.313-8.875-10.941 16.412a225.7 225.7 0 01-66.377-66.377l16.412-10.941-8.875-13.313-15.801 10.534C27.301 318.054 17.479 284.101 16.203 248H40v-16H16.203c1.276-36.101 11.098-70.054 27.559-99.877l15.801 10.534 8.875-13.313-16.412-10.941a225.7 225.7 0 0166.377-66.377l10.941 16.412 13.313-8.875-10.534-15.801c29.823-16.46 63.776-26.283 99.877-27.559V32h16V16.278c35.803 1.249 69.865 10.776 99.992 27.312l-10.648 15.972 13.313 8.875 11.084-16.626c33.152 21.453 60.683 51.716 79.092 88.864l14.336-7.102C414.34 51.184 331.895 0 240 0 107.664 0 0 107.664 0 240s107.664 240 240 240c91.895 0 174.34-51.184 215.168-133.574l-14.336-7.102c-18.409 37.149-45.939 67.412-79.092 88.864z"/><path d="M472 184h-71.063c-20.027-34.668-56.73-56-96.938-56-41.844 0-79.895 23.105-99.301 60.301a7.996 7.996 0 00.254 7.848 7.998 7.998 0 006.84 3.852h80.895l40 40-40 40h-80.895a7.998 7.998 0 00-6.84 3.852 7.996 7.996 0 00-.254 7.848C224.105 328.895 262.156 352 304 352c40.207 0 76.91-21.332 96.938-56H472a8 8 0 008-8v-96a8 8 0 00-8-8zm-8 96h-67.793a8 8 0 00-7.094 4.301C372.477 316.191 339.863 336 304 336c-31.246 0-60.023-15.035-77.922-40H296a8 8 0 005.656-2.344l48-48a7.998 7.998 0 000-11.313l-48-48a8 8 0 00-5.656-2.344h-69.922c17.898-24.965 46.676-40 77.922-40 35.863 0 68.477 19.809 85.113 51.699a7.999 7.999 0 007.094 4.301H464V280z"/><path d="M240 216c-13.234 0-24 10.766-24 24s10.766 24 24 24 24-10.766 24-24-10.766-24-24-24zm0 32c-4.41 0-8-3.59-8-8s3.59-8 8-8 8 3.59 8 8-3.59 8-8 8z"/><path d="M240 392a152.94 152.94 0 01-16-.86v-58.289a7.999 7.999 0 00-6.004-7.746 87.32 87.32 0 01-23.727-10.035 8.007 8.007 0 00-9.824 1.172l-41.035 41.035a153.37 153.37 0 01-20.688-20.688l41.035-41.035a7.995 7.995 0 001.172-9.824 87.308 87.308 0 01-10.035-23.727 7.999 7.999 0 00-7.746-6.004H88.86c-.553-5.261-.86-10.595-.86-16s.307-10.739.86-16h58.289a7.999 7.999 0 007.746-6.004 87.098 87.098 0 0110.035-23.723 8 8 0 00-1.172-9.828l-41.035-41.035a153.37 153.37 0 0120.688-20.688l41.035 41.035a7.992 7.992 0 005.66 2.344 7.981 7.981 0 004.168-1.172 87.085 87.085 0 0123.723-10.035 7.999 7.999 0 006.004-7.746V88.86a152.94 152.94 0 0116-.86c33.195 0 64.73 10.508 91.195 30.387l9.609-12.797C311.547 83.617 276.688 72 240 72c-92.637 0-168 75.363-168 168s75.363 168 168 168c36.688 0 71.547-11.617 100.805-33.59l-9.609-12.797C304.73 381.492 273.195 392 240 392zM208 91.456v49.685a103.127 103.127 0 00-16.551 6.992l-34.986-34.983c15.453-10.211 32.854-17.672 51.537-21.694zm-94.85 65.007l34.983 34.986A102.946 102.946 0 00141.141 208H91.456c4.022-18.683 11.483-36.084 21.694-51.537zm0 167.074C102.94 308.084 95.478 290.683 91.456 272h49.685a103.434 103.434 0 006.992 16.551l-34.983 34.986zM208 388.544c-18.683-4.022-36.084-11.483-51.537-21.694l34.986-34.983A103.252 103.252 0 00208 338.859v49.685z"/></svg>