<svg height="512" width="512" xmlns="http://www.w3.org/2000/svg" fill="red"><path d="M165.667 431.55a7.5 7.5 0 007.5 7.5c78.472 0 141.987-63.504 141.987-141.987 0-37.926-14.769-73.582-41.587-100.399a7.5 7.5 0 00-10.606 0 7.5 7.5 0 000 10.606c23.985 23.984 37.193 55.874 37.193 89.793 0 70.183-56.795 126.987-126.987 126.987a7.5 7.5 0 00-7.5 7.5zm7.5-276.473c-37.926 0-73.582 14.77-100.399 41.587-26.819 26.817-41.588 62.474-41.588 100.399 0 37.926 14.769 73.582 41.587 100.4 1.464 1.464 3.384 2.197 5.303 2.197s3.839-.732 5.303-2.197a7.5 7.5 0 000-10.606c-23.985-23.985-37.193-55.874-37.193-89.793s13.208-65.809 37.193-89.793c23.984-23.985 55.874-37.194 89.793-37.194a7.5 7.5 0 00.001-15z"/><path d="M173.167 181.545c-63.697 0-115.518 51.821-115.518 115.518s51.821 115.518 115.518 115.518c25.042 0 48.885-7.913 68.95-22.884a7.5 7.5 0 10-8.97-12.022c-17.455 13.023-38.195 19.907-59.98 19.907-55.426 0-100.518-45.092-100.518-100.518s45.092-100.518 100.518-100.518 100.518 45.092 100.518 100.518c0 20.083-5.93 39.48-17.148 56.096a7.5 7.5 0 1012.432 8.394c12.899-19.104 19.717-41.404 19.717-64.489-.001-63.698-51.823-115.52-115.519-115.52z"/><path d="M194.082 297.063c0-11.532-9.382-20.915-20.915-20.915-11.532 0-20.915 9.382-20.915 20.915s9.382 20.915 20.915 20.915c11.532.001 20.915-9.382 20.915-20.915zm-26.83 0c0-3.261 2.653-5.915 5.915-5.915s5.915 2.653 5.915 5.915-2.653 5.915-5.915 5.915a5.92 5.92 0 01-5.915-5.915zm-62.299-45.738l33.112 19.117c5.971 3.448 13.434 3.502 19.463-.046l.408-.236c5.999-3.409 9.725-9.849 9.725-16.808v-38.281a7.5 7.5 0 00-8.67-7.408c-22.027 3.48-41.955 15.001-56.111 32.439a7.503 7.503 0 002.073 11.223zm47.709-26.944v28.971c0 1.575-.818 3.018-2.137 3.767l-.597.345c-1.326.779-2.998.775-4.363-.013l-25.047-14.46c9.036-8.812 20.073-15.201 32.144-18.61zm36.135 46.011c5.934 3.492 13.394 3.559 19.471.05l33.112-19.117a7.5 7.5 0 002.072-11.222c-14.156-17.438-34.083-28.958-56.112-32.439a7.503 7.503 0 00-8.67 7.408v38.281c0 6.958 3.727 13.399 9.725 16.807zm4.874-46.01c12.072 3.408 23.108 9.797 32.144 18.609l-25.046 14.46c-1.366.789-3.038.792-4.37.009l-.591-.341c-1.318-.749-2.137-2.192-2.137-3.767zM93.172 260.268a7.5 7.5 0 00-4.499 4.377c-3.997 10.385-6.024 21.293-6.024 32.419s2.027 22.034 6.024 32.419a7.5 7.5 0 0010.749 3.801l33.134-19.129c5.994-3.46 9.709-9.988 9.696-17.021v-.125c.014-7.047-3.702-13.575-9.696-17.035l-33.134-19.13a7.493 7.493 0 00-6.25-.576zm31.884 32.695c1.378.796 2.199 2.297 2.196 4.031v.153c.003 1.719-.817 3.221-2.196 4.017l-25.081 14.48a74.99 74.99 0 01-2.327-18.581c0-6.304.78-12.524 2.327-18.581zm128.105 40.896a7.506 7.506 0 004.5-4.376 89.892 89.892 0 006.024-32.419 89.918 89.918 0 00-6.024-32.419 7.5 7.5 0 00-10.749-3.801l-33.134 19.13c-5.994 3.46-9.709 9.988-9.696 17.043v.104c-.013 7.047 3.703 13.574 9.696 17.035l33.133 19.129a7.504 7.504 0 006.25.574zm-31.884-32.695c-1.378-.796-2.199-2.298-2.196-3.987v-.197c-.003-1.72.818-3.221 2.196-4.017l25.081-14.48c1.546 6.057 2.327 12.276 2.327 18.581s-.78 12.524-2.327 18.581zm-62.285 85.299a7.5 7.5 0 008.67-7.408v-38.281c0-6.958-3.727-13.398-9.73-16.811l-.397-.229c-5.974-3.514-13.434-3.533-19.469-.049l-33.112 19.117a7.5 7.5 0 00-2.072 11.222c14.155 17.439 34.083 28.959 56.11 32.439zm-13.427-49.787c1.365-.788 3.038-.792 4.355-.018.202.12.406.237.604.35 1.318.749 2.137 2.192 2.137 3.767v28.971c-12.071-3.408-23.107-9.797-32.143-18.609zm35.734 48.081a7.505 7.505 0 006.042 1.706c22.028-3.481 41.955-15.001 56.111-32.438a7.503 7.503 0 00-2.072-11.222l-33.112-19.117c-6.034-3.484-13.495-3.466-19.478.054l-.394.228c-6 3.409-9.726 9.85-9.726 16.808v38.281a7.5 7.5 0 002.629 5.7zm12.372-43.983c0-1.574.819-3.017 2.132-3.764.204-.116.407-.233.601-.348a4.245 4.245 0 012.155-.582c.758 0 1.522.198 2.209.595l25.046 14.46c-9.035 8.812-20.071 15.201-32.143 18.609z"/><path d="M470.673 41.77H206.994c-22.788 0-41.327 18.54-41.327 41.328v40.96c-16.485.702-32.672 3.721-48.219 9.002a7.5 7.5 0 104.825 14.203c16.342-5.55 33.466-8.365 50.895-8.365 87.213 0 158.167 70.953 158.167 158.167a158.61 158.61 0 01-2.219 26.484c-11.357 67.088-65.103 119.947-132.63 129.967l-.176.026a158.734 158.734 0 01-23.143 1.689C85.953 455.23 15 384.277 15 297.063c0-57.157 30.404-107.618 76.472-135.463a7.501 7.501 0 002.539-10.298 7.499 7.499 0 00-10.298-2.539C33.168 179.313 0 234.638 0 297.063 0 392.548 77.682 470.23 173.167 470.23c8.1 0 16.072-.56 23.879-1.641a41.226 41.226 0 009.948 1.227h263.679c22.788 0 41.327-18.54 41.327-41.327v-70.028c0-13.97-6.968-26.343-17.611-33.827C505.032 317.15 512 304.777 512 290.807v-70.028c0-13.97-6.968-26.343-17.611-33.827C505.032 179.468 512 167.095 512 153.125V83.097c0-22.788-18.539-41.327-41.327-41.327zM497 248.293h-86.228a7.5 7.5 0 000 15H497v15H345.323a172.532 172.532 0 00-2.295-15h32.745a7.5 7.5 0 000-15h-36.43a171.785 171.785 0 00-5.174-15H497zM298.764 416.16a174.594 174.594 0 0012.706-15H497v15zm127.955 38.656l-23.656-23.656h22.62l23.656 23.656zm-43.833 0L359.23 431.16h22.62l23.656 23.656zm-43.833 0l-23.656-23.656h22.62l23.656 23.656zm-43.832 0l-18.81-18.81a174.203 174.203 0 006.207-4.846h11.567l23.656 23.656zm34.447-83.656H497v15H321.608a172.78 172.78 0 008.06-15zm52.183-215.549l23.841 23.841h-22.62l-23.841-23.841zm1.631 62.682l-23.841-23.841h22.62l23.841 23.841zm-45.464-62.682l23.841 23.841h-22.62l-23.841-23.841zm.411 38.841l23.841 23.841h-34.91a173.517 173.517 0 00-14.781-23.841zM359.23 356.16l24.026-24.026h22.62L381.85 356.16zm.411-39.026l23.841-23.841h22.62l-23.841 23.841zm-13.763-7.45a174.628 174.628 0 00.415-16.392h15.977zm-3.114 22.45h19.279l-24.026 24.026h-2.07a171.462 171.462 0 006.817-24.026zm104.132 24.026l24.024-24.024c13.629.126 24.817 10.662 25.98 24.024zm-21.213 0h-22.62l24.026-24.026h22.62zm-22.209-39.026l23.841-23.841h22.62l-23.841 23.841zm23.841-98.841l-23.841-23.841h22.62l23.841 23.841zm1.906-38.841h-2.316l-23.841-23.841h22.62l23.841 23.841zm17.675-23.841h49.987c-1.255 13.334-12.496 23.808-26.146 23.841zm-199.532-15a171.77 171.77 0 00-49.798-15H497v15zm249.636-45v15H180.667v-15zM274.193 56.77l-23.842 23.841h-22.62l23.842-23.841zm43.833 0l-23.841 23.841h-22.62l23.842-23.841zm43.833 0l-23.841 23.841h-22.62l23.841-23.841zm43.833 0l-23.841 23.841h-22.62l23.841-23.841zm43.833 0l-23.842 23.841h-22.62l23.841-23.841zm47.358 23.841h-49.987l23.841-23.841c13.65.033 24.891 10.506 26.146 23.841zM206.994 56.77h23.367l-23.842 23.841h-25.735c1.256-13.356 12.531-23.841 26.21-23.841zm65.958 98.841h21.232l23.841 23.841h-17.869a174.57 174.57 0 00-27.204-23.841zm-9.176 288.973l10.232 10.232h-29.437a173.035 173.035 0 0019.205-10.232zm206.897 10.232h-.121l-23.656-23.656h49.969c-1.342 13.267-12.577 23.656-26.192 23.656zm-23.366-137.682l23.841-23.841h25.735c-1.257 13.355-12.532 23.841-26.21 23.841zm49.576-98.841h-25.735l-23.841-23.841h23.366c13.678 0 24.953 10.486 26.21 23.841z"/></svg>