<svg xmlns="http://www.w3.org/2000/svg" viewBox="32.99 62.65 85.66 86.17"><path d="M77.33,148.82c-60.31,0-57.58-86.17-1-86.17C132.77,62.65,132.42,148.82,77.33,148.82Zm-1.14-71.7c-37.6,0-39.42,57.23.64,57.23C113.41,134.35,113.64,77.12,76.19,77.12Zm12.12,21c-2.46-3.71-1-9.17.13-12.13a21.05,21.05,0,0,1,10.72,17.2C96.2,102.92,90.8,101.89,88.31,98.13Zm10,13.3c-1.87,6.9-6.53,13.1-12.92,16.12-.55-3.51-1.16-10.15,1.3-13.22C89,111.47,94.73,111.26,98.3,111.43ZM76,111.91c-8.66,0-8.27-12.36-.14-12.36S83.93,111.91,76,111.91ZM72.32,92.29c-4.36,1-9-2.19-11.51-4.42a21.77,21.77,0,0,1,19.86-5C79.52,85.92,76.89,91.21,72.32,92.29ZM62,104.7c-.44,4.5-4.75,8.2-7.89,10.32-2.94-6.91-1.91-14.85,1.84-21.19C58.59,96,62.42,100,62,104.7Zm8.61,14.19c3.85,1.31,5.93,7.15,6.84,10.53a26.64,26.64,0,0,1-19.31-8.21C61.66,119.63,67.11,117.72,70.57,118.89Z"></path></svg>
