<svg xmlns="http://www.w3.org/2000/svg" viewBox="0 0 64 64" width="512" height="512" fill="red"><path d="M60 33h-1.18a27.145 27.145 0 00.18-3 28 28 0 10-28 28c.35 0 .68-.01 1-.02V61a1 1 0 001 1h10a1 1 0 001-1v-5a.993.993 0 00-.59-.91 27.892 27.892 0 0011.27-10.16.876.876 0 00.32.07h5a1 1 0 001-1V34a1 1 0 00-1-1zM42 60h-8v-3h8zM16.31 33H16a1 1 0 00-1 1v1.72A16.981 16.981 0 0140.62 16h-4.26A14.74 14.74 0 0031 15a14.969 14.969 0 00-14.69 18zM40 40a1 1 0 00-1 1v11h-2V41a1 1 0 00-1-1H25v-2h11a1 1 0 001-1V26h2v11a1 1 0 001 1h11v2zm3.01 2A15.88 15.88 0 0141 43.74V42zM40 54v1h-4v-1zm-7-12v.8a13.18 13.18 0 01-4-.006V42zm-6 0v.334c-.317-.1-.631-.209-.94-.334zm9-18v-1h4v1zm5 12v-2h2.34a12.09 12.09 0 01-.84 2zm5.88 0h-2.14a14.941 14.941 0 00-.82-13.61A1.006 1.006 0 0044 22v-2.93A16.927 16.927 0 0148 30a16.644 16.644 0 01-1.12 6zM44 30a13.383 13.383 0 01-.17 2H41v-4h2.85a13.365 13.365 0 01.15 2zm-3-4a1 1 0 001-1v-1.9a12.61 12.61 0 011.37 2.9zm1-5h-8v-3h8zm-15-3.36v2.7l-1.9-1.91a12.675 12.675 0 011.9-.79zM21.34 26h-2.7a12.675 12.675 0 01.79-1.9zM17 35h3v8h-3zm1.174-3A12.916 12.916 0 0118 30a13.161 13.161 0 01.17-2h5.59a.987.987 0 00.92-.62 1 1 0 00-.21-1.09l-3.96-3.94a13.188 13.188 0 012.84-2.84l3.94 3.96a1.007 1.007 0 00.71.29 1.015 1.015 0 001-1v-5.59a13.161 13.161 0 012-.17c.34 0 .67.02 1 .05V22a1 1 0 001 1h1v2a1 1 0 001 1v10H25a1 1 0 00-1-1h-.828l1.294-1.292A1 1 0 0023.76 32zM23 37v4h-1v-4zm-1 7v-1h1.53A14.906 14.906 0 0035 44.45v2.06a17.22 17.22 0 01-13.07-2.14A1.156 1.156 0 0022 44zm28.08 3.66l-1.4-1.4-1.42 1.42 1.4 1.39a26.334 26.334 0 01-3.8 2.93l-.99-1.72-1.74 1 .99 1.71c-.37.19-.75.37-1.12.54V53a1 1 0 00-1-1v-5.87A19.1 19.1 0 0045.7 42H51a1 1 0 001 1h1.48a26.134 26.134 0 01-3.4 4.66zM54 41h-1v-4h1zm0-7v1h-2a1 1 0 00-1 1h-1.99a18.64 18.64 0 00.99-6 19 19 0 10-35 10.22V44a1 1 0 001 1h3.36A19.077 19.077 0 0031 49a18.492 18.492 0 004-.43V52a1 1 0 00-1 1v2h-1a1 1 0 00-1 .98V54h-2v1.97a25.726 25.726 0 01-4.76-.62l.51-1.91-1.93-.52-.51 1.92a25.729 25.729 0 01-4.43-1.85l.99-1.71-1.74-1-.98 1.71a26.433 26.433 0 01-3.8-2.92l1.39-1.39-1.42-1.42-1.39 1.39a26.433 26.433 0 01-2.92-3.8l1.71-.98-1-1.74-1.71.99a25.729 25.729 0 01-1.85-4.43l1.92-.51-.52-1.93-1.91.51A25.726 25.726 0 015.03 31H7v-2H5.03a25.726 25.726 0 01.62-4.76l1.91.51.52-1.93-1.92-.51a25.729 25.729 0 011.85-4.43l1.71.99 1-1.74-1.71-.98a26.433 26.433 0 012.92-3.8l1.39 1.39 1.42-1.42-1.39-1.39a26.433 26.433 0 013.8-2.92l.98 1.71 1.74-1-.99-1.71a25.729 25.729 0 014.43-1.85l.51 1.92 1.93-.52-.51-1.91A25.726 25.726 0 0130 4.03V6h2V4.03a25.726 25.726 0 014.76.62l-.51 1.91 1.93.52.51-1.92a25.729 25.729 0 014.43 1.85l-.99 1.71 1.74 1 .98-1.71a26.433 26.433 0 013.8 2.92l-1.39 1.39 1.42 1.42 1.39-1.39a26.433 26.433 0 012.92 3.8l-1.71.98 1 1.74 1.71-.99a25.729 25.729 0 011.85 4.43l-1.92.51.52 1.93 1.91-.51a25.726 25.726 0 01.62 4.76H55v2h1.96c-.02.68-.07 1.34-.15 2H55a1 1 0 00-1 1zm5 9h-3v-8h3z"/></svg>