<svg xmlns="http://www.w3.org/2000/svg" height="134" viewBox="-22 0 134 134.06" width="134" fill="#ff903f"><path d="M23.348 134.059C8.445 84.953 39.934 67.023 39.934 67.023 37.73 93.227 52.62 113.641 52.62 113.641c5.477-1.653 15.93-9.375 15.93-9.375 0 9.375-5.516 29.78-5.516 29.78s19.309-14.929 25.387-39.726c6.07-24.797-11.563-49.691-11.563-49.691a66.494 66.494 0 01-16.507 48 9.514 9.514 0 001.445-2.227c2.09-4.18 5.445-15.043 3.48-40.199C62.512 14.891 30.516 0 30.516 0c2.757 21.516-5.512 26.473-24.883 67.313-19.371 40.832 17.715 66.746 17.715 66.746zm0 0"/></svg>